<?xml version="1.0" encoding="UTF-8"?>
<svg version="1.1" xmlns="http://www.w3.org/2000/svg" width="3200" height="2400">
<path d="M0 0 C111.03911807 0 111.03911807 0 127.25 5.625 C127.98541016 5.87733398 128.72082031 6.12966797 129.47851562 6.38964844 C147.28064283 12.87085579 159.64183015 25.22220316 168 42 C168.99 44.475 168.99 44.475 170 47 C170.495 23.735 170.495 23.735 171 0 C194.1 0 217.2 0 241 0 C243.31076757 5.77691893 245.52584164 11.32873939 247.45092773 17.20166016 C247.66494232 17.85157897 247.87895691 18.50149778 248.09945679 19.17111111 C248.79724732 21.2927651 249.49046694 23.41588082 250.18359375 25.5390625 C250.68088847 27.05440449 251.17845851 28.56965616 251.67628479 30.08482361 C252.99590765 34.10397482 254.31151045 38.12443076 255.6262207 42.14519119 C256.70975109 45.4571803 257.79569605 48.76837538 258.88170433 52.07955265 C266.63063795 75.7057004 274.35190297 99.34099792 282 123 C284.02416148 119.96375777 284.95522291 117.46691555 286.08447266 114.01123047 C286.49368958 112.76653488 286.90290649 111.52183929 287.32452393 110.23942566 C287.77113062 108.86537677 288.21764053 107.49129642 288.6640625 106.1171875 C289.13329441 104.68410082 289.60292774 103.25114552 290.07293701 101.8183136 C291.33441757 97.96889644 292.59028409 94.1176685 293.84520721 90.26610947 C295.14277356 86.28733044 296.44594385 82.31038807 297.74853516 78.33325195 C302.13525103 64.93372687 306.50477312 51.52860601 310.86550903 38.12060547 C312.00527836 34.61617768 313.14590204 31.11202889 314.28662109 27.60791016 C315.65827288 23.39406993 317.0252335 19.17874873 318.38916016 14.96240234 C318.99631437 13.0933904 319.60356688 11.22441038 320.2109375 9.35546875 C320.48274841 8.51099686 320.75455933 7.66652496 321.03460693 6.79646301 C322.88651423 1.11348577 322.88651423 1.11348577 324 0 C347.1 0 370.2 0 394 0 C394 69.3 394 138.6 394 210 C373.87 210 353.74 210 333 210 C332.68289742 175.85862211 333.8080752 144.21351155 341.38330078 110.88305664 C342.01434906 107.93291845 342.51284372 104.97685314 343 102 C342.75400354 102.81667806 342.75400354 102.81667806 342.50303745 103.64985466 C338.5157605 116.88667285 334.52645951 130.12287956 330.53496647 143.35842705 C328.60478703 149.75900701 326.67524123 156.15977629 324.74731445 162.56103516 C322.88802511 168.73415204 321.02698188 174.90673761 319.16470146 181.07895279 C318.45316002 183.43836605 317.74225966 185.79797275 317.03199959 188.15777206 C316.04001859 191.45318339 315.04579685 194.7479106 314.05102539 198.04248047 C313.75539703 199.0264682 313.45976868 200.01045593 313.15518188 201.02426147 C312.88455429 201.91891113 312.6139267 202.81356079 312.33509827 203.73532104 C312.10004106 204.51515791 311.86498384 205.29499477 311.62280369 206.09846306 C311 208 311 208 310 210 C291.85 210 273.7 210 255 210 C248.10707716 189.32123148 248.10707716 189.32123148 245.84033203 181.69482422 C245.44399818 180.37414948 245.44399818 180.37414948 245.03965759 179.02679443 C244.19308797 176.20353596 243.35038841 173.37914012 242.5078125 170.5546875 C241.91128451 168.5625187 241.31450852 166.57042414 240.71749878 164.57839966 C239.166487 159.40081848 237.61878683 154.22225347 236.07183838 149.04345703 C234.48483632 143.73278529 232.89461573 138.42307752 231.3046875 133.11328125 C228.2000222 122.74311416 225.09886397 112.37190203 222 102 C222 104.57898348 222.61182788 106.81518172 223.20703125 109.328125 C226.5754831 123.81469733 229.48690647 138.1943867 231 153 C231.14465698 154.3456604 231.14465698 154.3456604 231.29223633 155.71850586 C232.31677807 166.72940619 232.10865718 177.7662297 232.0625 188.8125 C232.041875 195.804375 232.02125 202.79625 232 210 C211.87 210 191.74 210 171 210 C170.67 177.99 170.34 145.98 170 113 C167.36 118.28 164.72 123.56 162 129 C147.2486371 147.01038494 129.05334198 156.22582929 106 159 C100.91339035 159.31314376 95.84547663 159.38155909 90.75 159.375 C90.06879089 159.37478851 89.38758179 159.37457703 88.68572998 159.37435913 C72.80729334 159.32517463 57.93226392 157.44101633 45.484375 146.6015625 C42.21938842 143.07881382 39.62934005 139.00624298 37 135 C40.39012075 143.00681786 45.23304706 152.25984866 53.42362976 156.15158081 C60.4695697 159.54096149 60.4695697 159.54096149 61.88304138 163.42895508 C62.15840753 166.43167725 62.12652841 169.29332477 61.9765625 172.3046875 C61.9664917 173.26189697 61.9564209 174.21910645 61.94604492 175.20532227 C61.89392752 178.76310945 61.75430665 182.31918144 61.625 185.875 C61.41875 193.83625 61.2125 201.7975 61 210 C40.87 210 20.74 210 0 210 C0 140.7 0 71.4 0 0 Z M61 55 C61 71.5 61 88 61 105 C82.83133943 106.38825412 82.83133943 106.38825412 104 100 C104.86625 99.443125 105.7325 98.88625 106.625 98.3125 C111.87219687 93.20338726 113.68996443 86.95295355 114.25 79.8125 C113.797348 72.90955693 112.23619432 65.82281056 107 61 C99.98152529 56.45482542 94.74398421 54.84059307 86.390625 54.90234375 C85.74593262 54.90335083 85.10124023 54.90435791 84.43701172 54.90539551 C82.04132291 54.91060598 79.64565957 54.92456719 77.25 54.9375 C71.8875 54.958125 66.525 54.97875 61 55 Z M34 129 C35 131 35 131 35 131 Z " fill="#00A65E" transform="translate(1347,1095)"/>
<path d="M0 0 C132.15337423 0 132.15337423 0 156 23 C172.09526167 41.2946142 176.3780948 64.26614505 175 88 C172.65901041 106.52515386 163.96073573 123.90506048 149.62109375 136.0078125 C138.03689606 144.59834112 125.29215503 148.53707472 111 148 C111 148.66 111 149.32 111 150 C112.18758911 149.86368164 112.18758911 149.86368164 113.39916992 149.72460938 C116.99495587 149.31351182 120.59121545 148.90671175 124.1875 148.5 C125.43337891 148.35691406 126.67925781 148.21382812 127.96289062 148.06640625 C129.16494141 147.93105469 130.36699219 147.79570313 131.60546875 147.65625 C132.71043701 147.53056641 133.81540527 147.40488281 134.95385742 147.27539062 C137.65945712 147.03078724 140.28596085 146.94700005 143 147 C143.4626123 147.90016846 143.92522461 148.80033691 144.40185547 149.7277832 C155.01111189 170.39751705 155.01111189 170.39751705 165.75 191 C166.11851074 191.70165283 166.48702148 192.40330566 166.86669922 193.1262207 C169.17913201 197.50657408 171.58537604 201.82363618 174.05566406 206.1171875 C175 208 175 208 175 210 C152.89 210 130.78 210 108 210 C94.11801752 184.5496988 94.11801752 184.5496988 88.8125 173.8125 C87.9762207 172.13897461 87.9762207 172.13897461 87.12304688 170.43164062 C83.14190463 162.4257139 83.14190463 162.4257139 82 159 C75.07 159 68.14 159 61 159 C61 175.83 61 192.66 61 210 C40.87 210 20.74 210 0 210 C0 140.7 0 71.4 0 0 Z M61 55 C61 71.5 61 88 61 105 C85.40594539 106.68690349 85.40594539 106.68690349 107.74609375 97.39453125 C113.57965248 91.05735593 114.47201733 84.69815995 114.30859375 76.2578125 C113.70080926 69.84145477 111.48773493 65.0719095 106.8125 60.625 C97.70951626 53.93683902 87.78027396 54.63202667 76.9375 54.8125 C69.0484375 54.9053125 69.0484375 54.9053125 61 55 Z " fill="#00A65F" transform="translate(2204,1095)"/>
<path d="M0 0 C49.83 0 99.66 0 151 0 C151 17.82 151 35.64 151 54 C149.17761338 55.82238662 146.65243917 55.11997696 144.2275238 55.12442017 C143.39890335 55.12082489 142.5702829 55.11722961 141.71655273 55.11352539 C140.41423203 55.11374443 140.41423203 55.11374443 139.08560181 55.1139679 C136.20157414 55.11326846 133.3176102 55.10547463 130.43359375 55.09765625 C128.43962133 55.09579218 126.44564845 55.09436823 124.45167542 55.09336853 C119.19254298 55.08954248 113.93343797 55.07971145 108.67431641 55.06866455 C103.31217825 55.0584523 97.95003569 55.05387131 92.58789062 55.04882812 C82.05857973 55.03808926 71.52929643 55.02049176 61 55 C61 62.59 61 70.18 61 78 C85.75 78 110.5 78 136 78 C136 95.82 136 113.64 136 132 C111.25 132 86.5 132 61 132 C61 139.59 61 147.18 61 155 C63.6908374 154.99476318 66.3816748 154.98952637 69.15405273 154.98413086 C78.02291948 154.9675959 86.89178689 154.95652916 95.76066494 154.94818783 C101.14033762 154.94295875 106.51999458 154.93586065 111.8996582 154.92456055 C117.08674843 154.91373255 122.27382349 154.90772335 127.46092415 154.90512276 C129.4445628 154.90326835 131.42820058 154.89964744 133.41183281 154.89426994 C136.18009136 154.88706068 138.94828638 154.88600901 141.71655273 154.88647461 C142.95948341 154.8810817 142.95948341 154.8810817 144.2275238 154.87557983 C149.88594784 154.88594784 149.88594784 154.88594784 151 156 C151 173.82 151 191.64 151 210 C101.17 210 51.34 210 0 210 C0 140.7 0 71.4 0 0 Z " fill="#00A55E" transform="translate(983,1095)"/>
<path d="M0 0 C0.66 0 1.32 0 2 0 C10.09468561 16.57445973 18.13552498 33.16507612 25.85888672 49.91650391 C30.60262756 60.18813443 35.44983007 70.40920441 40.3125 80.625 C46.2754511 93.15480708 52.2231941 105.69126382 58.125 118.25 C58.60919907 119.28027313 58.60919907 119.28027313 59.10317993 120.33135986 C59.42595917 121.01816833 59.7487384 121.70497681 60.08129883 122.41259766 C60.73387521 123.80111218 61.38646311 125.18962129 62.0390625 126.578125 C62.36192734 127.26510468 62.68479218 127.95208435 63.0174408 128.65988159 C66.47873366 136.02237161 69.95388356 143.37830189 73.42962646 150.73397827 C74.49038322 152.97964092 75.55026786 155.22571301 76.60986328 157.47192383 C79.87798615 164.39874133 83.15105497 171.32304298 86.44445801 178.23788452 C87.94153212 181.38297249 89.4343351 184.53007716 90.92651367 187.67749023 C91.63559282 189.1703139 92.34665657 190.66219671 93.05981445 192.15307617 C94.04495674 194.21296167 95.02320073 196.27599189 96 198.33984375 C96.556875 199.50894287 97.11375 200.67804199 97.6875 201.88256836 C99 205 99 205 100 210 C59.41 210 18.82 210 -23 210 C-21.80675192 204.03375959 -20.73181333 198.69221704 -18.93701172 192.98974609 C-18.74164825 192.36405731 -18.54628479 191.73836853 -18.34500122 191.09371948 C-17.71142137 189.06873028 -17.07065829 187.04609801 -16.4296875 185.0234375 C-15.98369029 183.60297551 -15.53815167 182.18236946 -15.0930481 180.7616272 C-13.93039591 177.05476885 -12.76159722 173.34987773 -11.59143066 169.64538574 C-10.3944157 165.85201698 -9.20333041 162.05678757 -8.01171875 158.26171875 C-5.68022135 150.83933042 -3.34221596 143.41901386 -1 136 C-6.01725163 145.22596431 -10.7647853 154.50318788 -15.125 164.0625 C-15.95099315 165.85630731 -16.77700053 167.65010816 -17.6036377 169.44361877 C-18.46841015 171.32090949 -19.3314453 173.19899212 -20.19433594 175.07714844 C-23.04737945 181.28137348 -25.92538723 187.47399318 -28.80853271 193.66427612 C-29.73907693 195.66402619 -30.66673107 197.66509968 -31.59423828 199.66625977 C-32.1616347 200.88564884 -32.72917271 202.10497205 -33.296875 203.32421875 C-34.04469238 204.9342981 -34.04469238 204.9342981 -34.80761719 206.5769043 C-36 209 -36 209 -37 210 C-38.90243762 210.09391296 -40.80838459 210.11743658 -42.71313477 210.11352539 C-43.9343251 210.11344986 -45.15551544 210.11337433 -46.41371155 210.11329651 C-47.75627686 210.10818911 -49.09884175 210.10297311 -50.44140625 210.09765625 C-51.80761158 210.09579199 -53.17381757 210.09436813 -54.5400238 210.09336853 C-58.14201695 210.08954394 -61.74397 210.07971417 -65.34594727 210.06866455 C-69.01903745 210.05844916 -72.69213409 210.05387064 -76.36523438 210.04882812 C-83.57684123 210.03809184 -90.788415 210.02101614 -98 210 C-96.46155057 205.25123475 -94.58911977 200.79150994 -92.4296875 196.296875 C-92.07669083 195.5547879 -91.72369415 194.81270081 -91.36000061 194.04812622 C-90.59900991 192.4493099 -89.83645114 190.85123917 -89.07247925 189.25384521 C-87.43851165 185.83733344 -85.81209038 182.41724659 -84.18510437 178.99740601 C-83.34738157 177.23681845 -82.5092537 175.47642358 -81.67073059 173.71621704 C-77.73281362 165.44837977 -73.83118404 157.16373652 -69.9375 148.875 C-68.62401341 146.08058078 -67.31013353 143.28634663 -65.99609375 140.4921875 C-65.6700415 139.79883301 -65.34398926 139.10547852 -65.00805664 138.39111328 C-61.18150201 130.25627401 -57.3405684 122.12822982 -53.5 114 C-47.66007698 101.63984553 -41.83101229 89.27465079 -36.01428223 76.90356445 C-32.23164125 68.85872024 -28.44297303 60.81680136 -24.640625 52.78125 C-16.33603022 35.22847403 -8.08849461 17.65366772 0 0 Z M0 130 C1 132 1 132 1 132 Z " fill="#00A65E" transform="translate(1237,1095)"/>
<path d="M0 0 C3.3293984 3.08534511 4.96374346 6.71330223 6.8515625 10.77734375 C7.22269669 11.56278061 7.59383087 12.34821747 7.97621155 13.15745544 C9.19854764 15.74799153 10.41174749 18.34269891 11.625 20.9375 C12.47961554 22.75305375 13.33484811 24.56831717 14.19067383 26.38330078 C15.94666237 30.10962273 17.69915344 33.83755807 19.44873047 37.56689453 C21.78111781 42.53711526 24.12422104 47.5021887 26.47265625 52.46484375 C33.66609963 67.66881207 40.83202547 82.88571445 47.99057007 98.10614014 C52.79404374 108.3192003 57.60738316 118.52755184 62.42861938 128.73223877 C86.12460728 178.88887023 86.12460728 178.88887023 95 198.0625 C95.51087158 199.16352051 96.02174316 200.26454102 96.5480957 201.39892578 C97.00659912 202.39263184 97.46510254 203.38633789 97.9375 204.41015625 C98.33839844 205.27777588 98.73929688 206.14539551 99.15234375 207.03930664 C100 209 100 209 100 210 C59.08 210 18.16 210 -24 210 C-20.62568831 196.50275324 -20.62568831 196.50275324 -18.9152832 191.06982422 C-18.53511551 189.8559201 -18.15494781 188.64201599 -17.76325989 187.3913269 C-17.56553293 186.76567715 -17.36780598 186.14002739 -17.1640873 185.49541855 C-16.53470667 183.50382148 -15.90971077 181.51089126 -15.28569031 179.51760864 C-13.96513701 175.30219382 -12.63903057 171.08853693 -11.3125 166.875 C-9.76352652 161.95280849 -8.2168601 157.02990734 -6.67464256 152.10559464 C-6.05878706 150.14270408 -5.43944121 148.18093775 -4.81990051 146.21920776 C-4.4491893 145.03682526 -4.07847809 143.85444275 -3.6965332 142.63623047 C-3.36804886 141.5932077 -3.03956451 140.55018494 -2.7011261 139.47555542 C-1.90916621 137.10810267 -1.90916621 137.10810267 -2 135 C-4.11800672 139.48216444 -6.23561263 143.964518 -8.35296631 148.44699097 C-9.11672118 150.06368606 -9.88059622 151.68032439 -10.64459229 153.29690552 C-14.97191859 162.45334166 -19.29145267 171.61326506 -23.5859375 180.78515625 C-24.31440984 182.33937576 -25.04292468 183.89357534 -25.77148438 185.44775391 C-26.81742649 187.67901288 -27.86247728 189.91066464 -28.90454102 192.14373779 C-29.86890221 194.21021769 -30.83648723 196.27516042 -31.8046875 198.33984375 C-32.35108887 199.50894287 -32.89749023 200.67804199 -33.46044922 201.88256836 C-33.96850098 202.9113208 -34.47655273 203.94007324 -35 205 C-35.40423691 205.87758972 -35.80847382 206.75517944 -36.22496033 207.65936279 C-38 210 -38 210 -40.67655945 210.60127258 C-42.29205437 210.584618 -42.29205437 210.584618 -43.94018555 210.56762695 C-45.77174446 210.56706047 -45.77174446 210.56706047 -47.64030457 210.56648254 C-48.95912125 210.54067612 -50.27793793 210.51486969 -51.63671875 210.48828125 C-53.00005295 210.4789541 -54.36340391 210.47183752 -55.72676086 210.46684265 C-59.31273788 210.44776422 -62.89769999 210.3986588 -66.48327637 210.34332275 C-70.14300811 210.29214691 -73.8029041 210.26933234 -77.46289062 210.24414062 C-84.64238946 210.1905386 -91.82105246 210.10521838 -99 210 C-94.05480671 198.7406098 -88.96851648 187.56292115 -83.67669678 176.46228027 C-82.51823639 174.03214705 -81.36255144 171.60070982 -80.20751953 169.16894531 C-78.99876116 166.62413275 -77.78985628 164.07939115 -76.58013916 161.53503418 C-72.49702372 152.94697424 -68.43402439 144.34946658 -64.375 135.75 C-64.02535187 135.00945374 -63.67570374 134.26890747 -63.31546021 133.50592041 C-57.87042194 121.97335038 -52.43749218 110.43510664 -47.00970459 98.89440918 C-41.14564641 86.42637591 -35.265266 73.9661036 -29.37744141 61.50927734 C-25.78097434 53.89874174 -22.1920881 46.28475489 -18.6171875 38.6640625 C-17.89779883 37.13150461 -17.17839794 35.59895245 -16.45898438 34.06640625 C-15.11722803 31.20792234 -13.77767959 28.34841905 -12.43945312 25.48828125 C-8.42404822 16.92377672 -4.27162215 8.43993827 0 0 Z M-1 131 C0 133 0 133 0 133 Z " fill="#00A65E" transform="translate(1849,1095)"/>
<path d="M0 0 C20.13 0 40.26 0 61 0 C61 51.15 61 102.3 61 155 C90.7 155 120.4 155 151 155 C151 173.15 151 191.3 151 210 C101.17 210 51.34 210 0 210 C0 140.7 0 71.4 0 0 Z " fill="#00A55E" transform="translate(821,1095)"/>
<path d="M0 0 C19.8 0 39.6 0 60 0 C60 51.15 60 102.3 60 155 C89.7 155 119.4 155 150 155 C150 173.15 150 191.3 150 210 C100.5 210 51 210 0 210 C0 140.7 0 71.4 0 0 Z " fill="#00A55E" transform="translate(2043,1095)"/>
<path d="M0 0 C20.13 0 40.26 0 61 0 C61 69.3 61 138.6 61 210 C40.87 210 20.74 210 0 210 C0 140.7 0 71.4 0 0 Z " fill="#00A55F" transform="translate(1958,1095)"/>
</svg>
